<?xml version="1.0" standalone="no"?>
<!DOCTYPE svg PUBLIC "-//W3C//DTD SVG 20010904//EN"
 "http://www.w3.org/TR/2001/REC-SVG-20010904/DTD/svg10.dtd">
<svg version="1.0" xmlns="http://www.w3.org/2000/svg"
 width="720.000000pt" height="720.000000pt" viewBox="0 0 720.000000 720.000000"
 preserveAspectRatio="xMidYMid meet">
<metadata>
Created by potrace 1.14, written by Peter Selinger 2001-2017
</metadata>
<g transform="translate(0.000000,720.000000) scale(0.100000,-0.100000)"
fill="#000000" stroke="none">
<path d="M3265 6464 c-544 -32 -1041 -223 -1462 -563 -118 -95 -314 -295 -405
-411 -530 -684 -677 -1573 -396 -2390 54 -156 190 -430 283 -570 369 -551 924
-931 1566 -1074 387 -86 857 -73 1234 36 328 94 673 275 925 486 611 511 943
1249 917 2037 -13 378 -92 695 -257 1030 -238 482 -589 850 -1066 1115 -259
144 -610 255 -914 289 -100 12 -340 20 -425 15z m343 -374 c738 -80 1370 -518
1701 -1178 261 -520 301 -1105 115 -1672 -203 -620 -691 -1125 -1296 -1344
l-96 -35 -4 412 c-4 392 -6 416 -27 487 -31 104 -75 191 -127 255 -24 30 -44
56 -44 59 0 2 60 6 133 9 250 10 431 85 606 251 117 112 208 268 253 431 19
72 21 105 22 350 1 250 -1 276 -22 350 -40 146 -126 298 -230 407 l-35 37 5
266 c5 218 3 265 -8 261 -7 -3 -121 -68 -254 -146 l-240 -141 -583 1 c-397 0
-606 -3 -658 -11 l-77 -12 -270 156 c-148 87 -272 157 -274 157 -2 0 -2 -157
0 -348 l4 -348 -50 -104 c-89 -184 -105 -288 -92 -606 11 -252 19 -294 90
-440 115 -238 312 -404 565 -479 69 -21 120 -28 222 -32 l133 -6 -28 -31 c-73
-84 -135 -214 -156 -326 -16 -85 -33 -95 -171 -95 -94 0 -105 2 -165 33 -36
18 -132 87 -215 153 -109 87 -177 134 -250 170 -90 44 -251 96 -263 84 -2 -2
11 -17 29 -32 146 -121 274 -257 393 -416 46 -61 99 -126 117 -144 70 -66 204
-106 404 -121 l100 -7 -3 -250 c-1 -137 -2 -253 -2 -257 0 -8 -144 36 -240 74
-262 104 -496 256 -704 458 -365 354 -580 792 -648 1320 -18 143 -15 433 6
565 77 481 280 882 615 1216 306 304 669 502 1074 584 215 43 447 56 645 35z
m-1531 -1842 c-3 -8 -6 -5 -6 6 -1 11 2 17 5 13 3 -3 4 -12 1 -19z m3830 -150
c-3 -7 -5 -2 -5 12 0 14 2 19 5 13 2 -7 2 -19 0 -25z m-5020 -25 c-3 -10 -5
-4 -5 12 0 17 2 24 5 18 2 -7 2 -21 0 -30z m2610 -1422 c20 -94 34 -320 34
-599 1 -150 0 -274 -2 -276 -2 -2 -30 -6 -63 -8 l-59 -5 6 356 c3 196 11 392
17 436 22 164 44 195 67 96z m-328 -54 c19 -93 31 -263 37 -547 l7 -279 -44 5
c-99 11 -89 -12 -89 212 0 475 49 809 89 609z m640 -45 c17 -117 31 -377 31
-568 l0 -171 -57 -12 c-31 -6 -60 -11 -65 -11 -18 0 -2 583 22 748 5 38 15 83
21 98 10 27 11 28 24 11 7 -10 18 -53 24 -95z"/>
</g>
</svg>
